HIERARCHY
ROOT Hips
{
	OFFSET 0.000000 89.005402 0.000000
	CHANNELS 6 Xposition Yposition Zposition Xrotation Yrotation Zrotation
	JOINT Spine
	{
		OFFSET 0.116900 10.681000 0.373400
		CHANNELS 3 Xrotation Yrotation Zrotation
		JOINT Spine1
		{
			OFFSET 0.000000 13.840401 0.053500
			CHANNELS 3 Xrotation Yrotation Zrotation
			JOINT Spine2
			{
				OFFSET 0.000000 14.712700 -0.366200
				CHANNELS 3 Xrotation Yrotation Zrotation
				JOINT Neck
				{
					OFFSET 0.000000 35.415497 -3.314200
					CHANNELS 3 Xrotation Yrotation Zrotation
					JOINT Head
					{
						OFFSET 0.000000 16.899200 1.218300
						CHANNELS 3 Xrotation Yrotation Zrotation
						JOINT HeadTop_End
						{
							OFFSET 0.000000 22.206207 2.192500
							CHANNELS 3 Xrotation Yrotation Zrotation
							End Site
							{
								OFFSET 0.000000 22.314178 0.000000
							}
						}
					}
				}
				JOINT LeftShoulder
				{
					OFFSET 12.896400 26.716293 -4.548400
					CHANNELS 3 Xrotation Yrotation Zrotation
					JOINT LeftArm
					{
						OFFSET 19.027000 -4.857010 -1.718400
						CHANNELS 3 Xrotation Yrotation Zrotation
						JOINT LeftForeArm
						{
							OFFSET 24.179897 0.000000 0.000000
							CHANNELS 3 Xrotation Yrotation Zrotation
							JOINT LeftHand
							{
								OFFSET 27.156403 0.000000 0.000000
								CHANNELS 3 Xrotation Yrotation Zrotation
								JOINT LeftHandIndex1
								{
									OFFSET 16.441200 0.000000 0.000000
									CHANNELS 3 Xrotation Yrotation Zrotation
									JOINT LeftHandIndex2
									{
										OFFSET 4.821899 0.000000 0.000000
										CHANNELS 3 Xrotation Yrotation Zrotation
										JOINT LeftHandIndex3
										{
											OFFSET 6.386497 0.000000 0.000000
											CHANNELS 3 Xrotation Yrotation Zrotation
											JOINT LeftHandIndex4
											{
												OFFSET 5.188988 0.000000 0.000000
												CHANNELS 3 Xrotation Yrotation Zrotation
												End Site
												{
													OFFSET -0.178703 5.185913 0.000177
												}
											}
										}
									}
								}
								JOINT LeftHandThumb1
								{
									OFFSET 6.534897 -5.032593 5.900300
									CHANNELS 3 Xrotation Yrotation Zrotation
									JOINT LeftHandThumb2
									{
										OFFSET 3.818176 -2.204422 2.204423
										CHANNELS 3 Xrotation Yrotation Zrotation
										JOINT LeftHandThumb3
										{
											OFFSET 3.252098 -1.877594 1.877601
											CHANNELS 3 Xrotation Yrotation Zrotation
											JOINT LeftHandThumb4
											{
												OFFSET 5.251778 -3.032120 3.032117
												CHANNELS 3 Xrotation Yrotation Zrotation
												End Site
												{
													OFFSET 0.000023 6.780014 0.000000
												}
											}
										}
									}
								}
							}
						}
					}
				}
				JOINT RightShoulder
				{
					OFFSET -12.896300 26.716293 -4.548400
					CHANNELS 3 Xrotation Yrotation Zrotation
					JOINT RightArm
					{
						OFFSET -19.027000 -4.857010 -1.718400
						CHANNELS 3 Xrotation Yrotation Zrotation
						JOINT RightForeArm
						{
							OFFSET -24.179897 0.000000 0.000000
							CHANNELS 3 Xrotation Yrotation Zrotation
							JOINT RightHand
							{
								OFFSET -27.156403 0.000000 0.000000
								CHANNELS 3 Xrotation Yrotation Zrotation
								JOINT RightHandThumb1
								{
									OFFSET -6.591202 -4.852203 5.988100
									CHANNELS 3 Xrotation Yrotation Zrotation
									JOINT RightHandThumb2
									{
										OFFSET -3.818176 -2.204422 2.204423
										CHANNELS 3 Xrotation Yrotation Zrotation
										JOINT RightHandThumb3
										{
											OFFSET -3.252098 -1.877594 1.877601
											CHANNELS 3 Xrotation Yrotation Zrotation
											JOINT RightHandThumb4
											{
												OFFSET -5.251778 -3.032120 3.032117
												CHANNELS 3 Xrotation Yrotation Zrotation
												End Site
												{
													OFFSET -0.000023 6.780014 0.000000
												}
											}
										}
									}
								}
								JOINT RightHandIndex1
								{
									OFFSET -16.029404 0.000000 0.000000
									CHANNELS 3 Xrotation Yrotation Zrotation
									JOINT RightHandIndex2
									{
										OFFSET -5.213303 0.000000 0.000000
										CHANNELS 3 Xrotation Yrotation Zrotation
										JOINT RightHandIndex3
										{
											OFFSET -6.386528 0.000000 0.000000
											CHANNELS 3 Xrotation Yrotation Zrotation
											JOINT RightHandIndex4
											{
												OFFSET -5.189026 0.000000 0.000000
												CHANNELS 3 Xrotation Yrotation Zrotation
												End Site
												{
													OFFSET 0.236702 5.183624 0.001972
												}
											}
										}
									}
								}
							}
						}
					}
				}
			}
		}
	}
	JOINT LeftUpLeg
	{
		OFFSET 14.073000 -7.904099 -1.463000
		CHANNELS 3 Xrotation Yrotation Zrotation
		JOINT LeftLeg
		{
			OFFSET -0.109806 -34.073280 4.093200
			CHANNELS 3 Xrotation Yrotation Zrotation
			JOINT LeftFoot
			{
				OFFSET 0.109806 -29.899420 -6.319000
				CHANNELS 3 Xrotation Yrotation Zrotation
				JOINT LeftToeBase
				{
					OFFSET 1.551100 -14.988700 20.535801
					CHANNELS 3 Xrotation Yrotation Zrotation
					JOINT LeftToe_End
					{
						OFFSET 0.221200 0.570800 13.248301
						CHANNELS 3 Xrotation Yrotation Zrotation
						End Site
						{
							OFFSET 0.000000 13.262435 0.000000
						}
					}
				}
			}
		}
	}
	JOINT RightUpLeg
	{
		OFFSET -13.839300 -7.904099 -1.463000
		CHANNELS 3 Xrotation Yrotation Zrotation
		JOINT RightLeg
		{
			OFFSET 0.109694 -34.073219 4.093300
			CHANNELS 3 Xrotation Yrotation Zrotation
			JOINT RightFoot
			{
				OFFSET -0.109694 -29.899384 -6.319200
				CHANNELS 3 Xrotation Yrotation Zrotation
				JOINT RightToeBase
				{
					OFFSET -1.551100 -14.988700 20.535801
					CHANNELS 3 Xrotation Yrotation Zrotation
					JOINT RightToe_End
					{
						OFFSET -0.221200 0.570900 13.248299
						CHANNELS 3 Xrotation Yrotation Zrotation
						End Site
						{
							OFFSET 0.000000 13.262440 0.000000
						}
					}
				}
			}
		}
	}
}
MOTION
Frames: 4
Frame Time: 0.033333
-4.530795 79.419373 2.739283 -28.016606 -58.984885 -12.657008 -5.730021 4.547768 7.818158 9.107569 1.346934 -0.328311 9.119184 1.330631 -0.135116 -7.408363 7.153145 -2.814031 -3.921711 33.166473 -19.651188 0.000000 -0.000001 0.000001 0.618488 2.520113 -9.512588 -26.112640 33.883168 -16.059674 -0.000019 -80.021950 0.000005 -4.181485 0.887708 6.094137 0.664230 2.955411 -25.328139 0.664233 2.955412 -25.328145 0.167944 1.514518 -12.655516 0.000000 0.000001 -0.000002 -1.540030 3.690197 6.142364 5.373052 26.501166 2.026928 0.239411 10.829223 3.418044 0.000001 0.000002 0.000002 0.520404 2.020541 4.717884 -25.400886 36.092960 42.116736 0.000136 85.580979 -0.000138 -22.746502 14.828981 6.312898 -1.849247 -3.581803 -6.586140 6.006313 -24.368602 -1.227809 -0.568717 -7.708671 -2.915335 0.000001 -0.000002 -0.000003 4.981160 -6.665298 73.516441 4.981197 -6.665296 73.516468 1.375887 -4.157113 36.613130 -0.000003 -0.000002 -0.000001 -31.596120 13.791472 38.559239 82.183035 -10.853610 -2.997881 15.365298 -14.271629 -17.185634 -0.000009 -0.000004 0.000001 -0.000003 0.000001 0.000000 -9.947015 -13.502150 -27.349508 53.698018 10.146305 -5.273383 -34.371961 -0.635603 3.820611 -1.929137 0.000009 0.000005 -0.000000 0.000001 0.000000 
-3.567049 79.678024 1.898294 -23.931998 -62.068914 -11.343881 -5.047982 4.283226 7.000980 9.681154 1.371573 1.301263 9.663989 1.336736 1.486685 -8.009433 7.833278 -3.996606 -7.508885 35.721804 -20.351235 0.000001 -0.000001 -0.000001 0.681527 1.548510 -9.951318 -31.584909 30.920693 -9.302828 0.000201 -82.264895 0.000181 -5.582224 3.221147 3.206644 0.405180 2.331355 -19.716002 0.405182 2.331386 -19.715990 0.101987 1.183137 -9.853884 0.000002 -0.000001 -0.000002 -1.540036 3.690199 6.142368 5.373054 26.501166 2.026926 0.239411 10.829224 3.418047 -0.000002 0.000002 0.000000 0.447824 1.598205 1.435351 -30.705269 38.121072 43.075370 0.021624 89.226900 -0.021436 -22.833756 13.407295 5.721882 -1.849249 -3.581799 -6.586143 6.006318 -24.368602 -1.227805 -0.568715 -7.708674 -2.915334 -0.000000 -0.000002 0.000002 4.547674 -6.522286 69.742549 4.547674 -6.522284 69.742543 1.243227 -3.972774 34.741655 0.000003 0.000000 -0.000001 -29.358537 14.323476 36.381115 72.952875 -10.812850 -3.089320 12.918936 -10.717732 -18.041492 -5.528779 -0.159091 1.639377 0.000001 0.000000 0.000002 -13.753139 -10.984151 -24.331622 52.171468 10.348768 -4.915222 -30.494264 -0.887584 5.908637 -1.838085 -0.000008 0.000005 -0.000000 0.000000 0.000000 
-2.607287 80.199173 1.030178 -20.351338 -64.187775 -10.174949 -4.020874 3.487268 5.943619 10.464376 1.257624 2.445124 10.435180 1.209778 2.605859 -8.902652 8.297221 -4.382035 -10.406463 38.022960 -21.091269 -0.000000 0.000000 -0.000001 0.666110 1.469242 -9.573242 -35.184579 26.819708 -5.213722 0.000112 -84.193693 0.000137 -6.549356 3.532772 -1.001519 0.249914 1.841763 -15.453462 0.249905 1.841744 -15.453465 0.062745 0.929329 -7.724722 0.000002 -0.000001 0.000000 -1.540034 3.690195 6.142366 5.373061 26.501165 2.026927 0.239416 10.829224 3.418044 -0.000000 0.000002 -0.000002 0.306075 0.702308 -0.909374 -36.623642 40.695247 46.155942 0.002325 91.931184 -0.002359 -22.014301 11.454505 5.290408 -1.849251 -3.581802 -6.586144 6.006317 -24.368599 -1.227810 -0.568721 -7.708676 -2.915334 -0.000002 -0.000002 -0.000003 4.078009 -6.330330 65.548137 4.077999 -6.330344 65.548144 1.102874 -3.762842 32.661288 -0.000000 -0.000003 -0.000000 -26.620954 14.739965 34.328845 63.256561 -10.894222 -2.829745 8.352702 -6.431730 -18.982076 -11.404647 0.084792 -0.422405 0.000000 -0.000001 -0.000000 -15.716554 -9.917614 -21.169744 48.989399 10.286809 -4.347287 -27.238188 -1.274252 6.579257 -1.505800 0.000007 0.000007 0.000000 -0.000000 0.000000 
-1.669117 80.808685 0.263620 -16.662738 -65.570356 -8.785691 -3.619335 2.469009 5.223598 11.823650 1.075312 2.649429 11.800722 1.010414 2.788929 -10.672288 8.461039 -3.657136 -12.398472 39.383738 -21.217844 -0.000000 0.000000 -0.000002 0.523349 2.612492 -7.874909 -37.778674 21.325671 -4.468940 -0.000391 -86.275316 -0.000384 -6.427299 3.242031 -4.248417 0.221230 1.734739 -14.534403 0.221228 1.734728 -14.534405 0.055514 0.874390 -7.265523 -0.000002 0.000000 -0.000000 -1.540033 3.690202 6.142368 5.373053 26.501172 2.026925 0.239412 10.829227 3.418047 0.000001 0.000002 0.000001 0.211511 -0.534652 -0.573788 -41.957845 44.281899 48.820741 0.000438 94.389799 -0.000384 -20.914825 9.479335 3.988959 -1.849247 -3.581797 -6.586144 6.006316 -24.368604 -1.227809 -0.568718 -7.708674 -2.915334 -0.000000 0.000004 0.000005 3.587626 -6.084949 61.015405 3.587606 -6.084960 61.015439 0.959850 -3.530194 30.412315 -0.000001 -0.000001 0.000001 -23.712359 15.695990 32.601678 52.785727 -10.892485 -2.421378 4.077850 -0.862064 -18.402447 -9.831216 0.540669 -3.117149 0.000001 -0.000001 -0.000000 -17.305177 -8.986320 -17.784943 46.381813 9.429297 -3.908579 -24.456121 -1.875378 6.115566 -0.494549 -0.000025 -0.000002 -0.000000 0.000000 -0.000000 
